<svg xmlns="http://www.w3.org/2000/svg" xmlns:xlink="http://www.w3.org/1999/xlink" width="180" zoomAndPan="magnify" viewBox="0 0 135 30.000001" height="40" preserveAspectRatio="xMidYMid meet" version="1.0"><defs><g/><clipPath id="9e35cf27f1"><path d="M 109 0 L 132.820312 0 L 132.820312 27 L 109 27 Z M 109 0 " clip-rule="nonzero"/></clipPath></defs><g fill="#000000" fill-opacity="1"><g transform="translate(2.361051, 24.912638)"><g><path d="M 25.140625 1.21875 L 13.765625 1.21875 L 12.546875 -3.296875 C 12.398438 -3.828125 12.21875 -4.546875 12 -5.453125 C 11.789062 -6.367188 11.554688 -7.363281 11.296875 -8.4375 C 11.046875 -9.519531 10.789062 -10.582031 10.53125 -11.625 C 10.570312 -10.976562 10.613281 -10.242188 10.65625 -9.421875 C 10.707031 -8.609375 10.757812 -7.800781 10.8125 -7 C 10.863281 -6.195312 10.90625 -5.457031 10.9375 -4.78125 C 10.96875 -4.113281 10.984375 -3.585938 10.984375 -3.203125 L 10.984375 1.21875 L 1.5 1.21875 L 1.5 -24.234375 L 12.9375 -24.234375 L 14.125 -19.71875 C 14.332031 -18.976562 14.550781 -18.125 14.78125 -17.15625 C 15.019531 -16.195312 15.265625 -15.210938 15.515625 -14.203125 C 15.773438 -13.191406 15.992188 -12.25 16.171875 -11.375 C 16.148438 -12.03125 16.109375 -12.773438 16.046875 -13.609375 C 15.984375 -14.441406 15.921875 -15.285156 15.859375 -16.140625 C 15.804688 -16.992188 15.757812 -17.773438 15.71875 -18.484375 C 15.675781 -19.203125 15.65625 -19.753906 15.65625 -20.140625 L 15.65625 -24.234375 L 25.140625 -24.234375 Z M 25.140625 1.21875 "/></g></g></g><g fill="#000000" fill-opacity="1"><g transform="translate(28.997635, 24.912638)"><g><path d="M 27.03125 1.21875 L 16.59375 1.21875 L 15.84375 -2.234375 L 10.984375 -2.234375 L 10.21875 1.21875 L 0 1.21875 L 7.296875 -24.234375 L 19.75 -24.234375 Z M 14.5625 -9.921875 L 13.640625 -15.5 L 13.328125 -15.5 L 12.390625 -9.921875 Z M 14.5625 -9.921875 "/></g></g></g><g fill="#000000" fill-opacity="1"><g transform="translate(56.030869, 24.912638)"><g><path d="M 25.140625 1.21875 L 13.765625 1.21875 L 12.546875 -3.296875 C 12.398438 -3.828125 12.21875 -4.546875 12 -5.453125 C 11.789062 -6.367188 11.554688 -7.363281 11.296875 -8.4375 C 11.046875 -9.519531 10.789062 -10.582031 10.53125 -11.625 C 10.570312 -10.976562 10.613281 -10.242188 10.65625 -9.421875 C 10.707031 -8.609375 10.757812 -7.800781 10.8125 -7 C 10.863281 -6.195312 10.90625 -5.457031 10.9375 -4.78125 C 10.96875 -4.113281 10.984375 -3.585938 10.984375 -3.203125 L 10.984375 1.21875 L 1.5 1.21875 L 1.5 -24.234375 L 12.9375 -24.234375 L 14.125 -19.71875 C 14.332031 -18.976562 14.550781 -18.125 14.78125 -17.15625 C 15.019531 -16.195312 15.265625 -15.210938 15.515625 -14.203125 C 15.773438 -13.191406 15.992188 -12.25 16.171875 -11.375 C 16.148438 -12.03125 16.109375 -12.773438 16.046875 -13.609375 C 15.984375 -14.441406 15.921875 -15.285156 15.859375 -16.140625 C 15.804688 -16.992188 15.757812 -17.773438 15.71875 -18.484375 C 15.675781 -19.203125 15.65625 -19.753906 15.65625 -20.140625 L 15.65625 -24.234375 L 25.140625 -24.234375 Z M 25.140625 1.21875 "/></g></g></g><g fill="#000000" fill-opacity="1"><g transform="translate(82.667453, 24.912638)"><g><path d="M 13.671875 1.21875 L 1.34375 1.21875 L 1.34375 -24.234375 L 13.890625 -24.234375 C 15.410156 -24.234375 16.882812 -23.957031 18.3125 -23.40625 C 19.738281 -22.851562 21.003906 -22.039062 22.109375 -20.96875 C 23.210938 -19.90625 24.085938 -18.578125 24.734375 -16.984375 C 25.390625 -15.390625 25.71875 -13.550781 25.71875 -11.46875 C 25.71875 -9.175781 25.382812 -7.21875 24.71875 -5.59375 C 24.0625 -3.976562 23.164062 -2.664062 22.03125 -1.65625 C 20.894531 -0.65625 19.609375 0.0703125 18.171875 0.53125 C 16.734375 0.988281 15.234375 1.21875 13.671875 1.21875 Z M 11.5625 -7.203125 L 13.09375 -7.203125 C 13.289062 -7.203125 13.519531 -7.242188 13.78125 -7.328125 C 14.050781 -7.410156 14.316406 -7.59375 14.578125 -7.875 C 14.847656 -8.15625 15.066406 -8.582031 15.234375 -9.15625 C 15.410156 -9.726562 15.5 -10.5 15.5 -11.46875 C 15.5 -12.488281 15.394531 -13.285156 15.1875 -13.859375 C 14.988281 -14.441406 14.742188 -14.867188 14.453125 -15.140625 C 14.171875 -15.421875 13.898438 -15.601562 13.640625 -15.6875 C 13.378906 -15.769531 13.195312 -15.8125 13.09375 -15.8125 L 11.5625 -15.8125 Z M 11.5625 -7.203125 "/></g></g></g><g clip-path="url(#9e35cf27f1)"><g fill="#000000" fill-opacity="1"><g transform="translate(109.151469, 24.912638)"><g><path d="M 22.34375 -15.953125 L 13.640625 -15.953125 C 13.578125 -16.347656 13.378906 -16.65625 13.046875 -16.875 C 12.710938 -17.09375 12.28125 -17.203125 11.75 -17.203125 C 11.257812 -17.203125 10.875 -17.140625 10.59375 -17.015625 C 10.320312 -16.898438 10.1875 -16.679688 10.1875 -16.359375 C 10.1875 -15.847656 10.503906 -15.519531 11.140625 -15.375 L 15.984375 -14.21875 C 18.265625 -13.6875 19.976562 -12.742188 21.125 -11.390625 C 22.28125 -10.046875 22.859375 -8.375 22.859375 -6.375 C 22.859375 -4.789062 22.5 -3.367188 21.78125 -2.109375 C 21.070312 -0.847656 19.921875 0.144531 18.328125 0.875 C 16.742188 1.613281 14.632812 1.984375 12 1.984375 C 9.675781 1.984375 7.660156 1.613281 5.953125 0.875 C 4.242188 0.144531 2.921875 -0.929688 1.984375 -2.359375 C 1.046875 -3.796875 0.554688 -5.550781 0.515625 -7.625 L 9.375 -7.625 C 9.425781 -7.175781 9.640625 -6.800781 10.015625 -6.5 C 10.398438 -6.195312 10.863281 -6.046875 11.40625 -6.046875 C 12.082031 -6.046875 12.59375 -6.117188 12.9375 -6.265625 C 13.28125 -6.421875 13.453125 -6.703125 13.453125 -7.109375 C 13.453125 -7.429688 13.285156 -7.707031 12.953125 -7.9375 C 12.617188 -8.175781 12.078125 -8.367188 11.328125 -8.515625 L 7.171875 -9.34375 C 4.804688 -9.8125 3.15625 -10.710938 2.21875 -12.046875 C 1.289062 -13.390625 0.828125 -15.117188 0.828125 -17.234375 C 0.828125 -18.804688 1.234375 -20.175781 2.046875 -21.34375 C 2.859375 -22.507812 4.0625 -23.414062 5.65625 -24.0625 C 7.257812 -24.71875 9.21875 -25.046875 11.53125 -25.046875 C 14.925781 -25.046875 17.566406 -24.300781 19.453125 -22.8125 C 21.335938 -21.332031 22.300781 -19.046875 22.34375 -15.953125 Z M 22.34375 -15.953125 "/></g></g></g></g></svg>