<svg xmlns="http://www.w3.org/2000/svg" xmlns:xlink="http://www.w3.org/1999/xlink" width="180" zoomAndPan="magnify" viewBox="0 0 135 37.5" height="50" preserveAspectRatio="xMidYMid meet" version="1.0"><defs><g/><clipPath id="1948727593"><path d="M 0.886719 0 L 134.109375 0 L 134.109375 37.007812 L 0.886719 37.007812 Z M 0.886719 0 " clip-rule="nonzero"/></clipPath></defs><g clip-path="url(#1948727593)"><path fill="#ffffff" d="M 0.886719 0 L 134.113281 0 L 134.113281 37.007812 L 0.886719 37.007812 Z M 0.886719 0 " fill-opacity="1" fill-rule="nonzero"/><path fill="#ffffff" d="M 0.886719 0 L 134.113281 0 L 134.113281 37.007812 L 0.886719 37.007812 Z M 0.886719 0 " fill-opacity="1" fill-rule="nonzero"/></g><g fill="#000000" fill-opacity="1"><g transform="translate(1.075416, 29.153189)"><g><path d="M 25.640625 1.25 L 14.03125 1.25 L 12.796875 -3.359375 C 12.648438 -3.898438 12.46875 -4.632812 12.25 -5.5625 C 12.03125 -6.5 11.789062 -7.515625 11.53125 -8.609375 C 11.269531 -9.710938 11.003906 -10.796875 10.734375 -11.859375 C 10.773438 -11.191406 10.820312 -10.441406 10.875 -9.609375 C 10.925781 -8.785156 10.976562 -7.960938 11.03125 -7.140625 C 11.082031 -6.316406 11.125 -5.5625 11.15625 -4.875 C 11.1875 -4.195312 11.203125 -3.660156 11.203125 -3.265625 L 11.203125 1.25 L 1.53125 1.25 L 1.53125 -24.71875 L 13.203125 -24.71875 L 14.40625 -20.109375 C 14.613281 -19.359375 14.835938 -18.488281 15.078125 -17.5 C 15.316406 -16.519531 15.566406 -15.515625 15.828125 -14.484375 C 16.085938 -13.460938 16.3125 -12.503906 16.5 -11.609375 C 16.476562 -12.273438 16.4375 -13.03125 16.375 -13.875 C 16.3125 -14.726562 16.25 -15.585938 16.1875 -16.453125 C 16.125 -17.328125 16.070312 -18.128906 16.03125 -18.859375 C 15.988281 -19.585938 15.96875 -20.148438 15.96875 -20.546875 L 15.96875 -24.71875 L 25.640625 -24.71875 Z M 25.640625 1.25 "/></g></g></g><g fill="#000000" fill-opacity="1"><g transform="translate(28.237721, 29.153189)"><g><path d="M 27.578125 1.25 L 16.9375 1.25 L 16.15625 -2.265625 L 11.203125 -2.265625 L 10.421875 1.25 L 0 1.25 L 7.4375 -24.71875 L 20.140625 -24.71875 Z M 14.84375 -10.109375 L 13.90625 -15.8125 L 13.609375 -15.8125 L 12.640625 -10.109375 Z M 14.84375 -10.109375 "/></g></g></g><g fill="#000000" fill-opacity="1"><g transform="translate(55.804505, 29.153189)"><g><path d="M 25.640625 1.25 L 14.03125 1.25 L 12.796875 -3.359375 C 12.648438 -3.898438 12.46875 -4.632812 12.25 -5.5625 C 12.03125 -6.5 11.789062 -7.515625 11.53125 -8.609375 C 11.269531 -9.710938 11.003906 -10.796875 10.734375 -11.859375 C 10.773438 -11.191406 10.820312 -10.441406 10.875 -9.609375 C 10.925781 -8.785156 10.976562 -7.960938 11.03125 -7.140625 C 11.082031 -6.316406 11.125 -5.5625 11.15625 -4.875 C 11.1875 -4.195312 11.203125 -3.660156 11.203125 -3.265625 L 11.203125 1.25 L 1.53125 1.25 L 1.53125 -24.71875 L 13.203125 -24.71875 L 14.40625 -20.109375 C 14.613281 -19.359375 14.835938 -18.488281 15.078125 -17.5 C 15.316406 -16.519531 15.566406 -15.515625 15.828125 -14.484375 C 16.085938 -13.460938 16.3125 -12.503906 16.5 -11.609375 C 16.476562 -12.273438 16.4375 -13.03125 16.375 -13.875 C 16.3125 -14.726562 16.25 -15.585938 16.1875 -16.453125 C 16.125 -17.328125 16.070312 -18.128906 16.03125 -18.859375 C 15.988281 -19.585938 15.96875 -20.148438 15.96875 -20.546875 L 15.96875 -24.71875 L 25.640625 -24.71875 Z M 25.640625 1.25 "/></g></g></g><g fill="#000000" fill-opacity="1"><g transform="translate(82.96681, 29.153189)"><g><path d="M 13.9375 1.25 L 1.375 1.25 L 1.375 -24.71875 L 14.15625 -24.71875 C 15.71875 -24.71875 17.222656 -24.4375 18.671875 -23.875 C 20.128906 -23.3125 21.421875 -22.484375 22.546875 -21.390625 C 23.679688 -20.304688 24.578125 -18.945312 25.234375 -17.3125 C 25.898438 -15.6875 26.234375 -13.816406 26.234375 -11.703125 C 26.234375 -9.359375 25.894531 -7.359375 25.21875 -5.703125 C 24.550781 -4.054688 23.632812 -2.71875 22.46875 -1.6875 C 21.3125 -0.664062 20 0.078125 18.53125 0.546875 C 17.070312 1.015625 15.539062 1.25 13.9375 1.25 Z M 11.796875 -7.34375 L 13.359375 -7.34375 C 13.554688 -7.34375 13.789062 -7.382812 14.0625 -7.46875 C 14.332031 -7.550781 14.601562 -7.738281 14.875 -8.03125 C 15.144531 -8.320312 15.367188 -8.753906 15.546875 -9.328125 C 15.722656 -9.910156 15.8125 -10.703125 15.8125 -11.703125 C 15.8125 -12.742188 15.707031 -13.554688 15.5 -14.140625 C 15.289062 -14.734375 15.039062 -15.171875 14.75 -15.453125 C 14.457031 -15.734375 14.175781 -15.914062 13.90625 -16 C 13.644531 -16.082031 13.460938 -16.125 13.359375 -16.125 L 11.796875 -16.125 Z M 11.796875 -7.34375 "/></g></g></g><g fill="#000000" fill-opacity="1"><g transform="translate(109.973536, 29.153189)"><g><path d="M 22.78125 -16.28125 L 13.90625 -16.28125 C 13.84375 -16.675781 13.640625 -16.984375 13.296875 -17.203125 C 12.960938 -17.429688 12.523438 -17.546875 11.984375 -17.546875 C 11.484375 -17.546875 11.09375 -17.484375 10.8125 -17.359375 C 10.53125 -17.242188 10.390625 -17.019531 10.390625 -16.6875 C 10.390625 -16.164062 10.710938 -15.832031 11.359375 -15.6875 L 16.3125 -14.5 C 18.632812 -13.957031 20.378906 -13 21.546875 -11.625 C 22.722656 -10.25 23.3125 -8.539062 23.3125 -6.5 C 23.3125 -4.882812 22.945312 -3.429688 22.21875 -2.140625 C 21.5 -0.859375 20.328125 0.148438 18.703125 0.890625 C 17.085938 1.640625 14.929688 2.015625 12.234375 2.015625 C 9.867188 2.015625 7.8125 1.640625 6.0625 0.890625 C 4.320312 0.148438 2.972656 -0.945312 2.015625 -2.40625 C 1.066406 -3.875 0.570312 -5.664062 0.53125 -7.78125 L 9.5625 -7.78125 C 9.625 -7.320312 9.84375 -6.9375 10.21875 -6.625 C 10.601562 -6.3125 11.078125 -6.15625 11.640625 -6.15625 C 12.328125 -6.15625 12.84375 -6.234375 13.1875 -6.390625 C 13.539062 -6.546875 13.71875 -6.832031 13.71875 -7.25 C 13.71875 -7.582031 13.546875 -7.867188 13.203125 -8.109375 C 12.867188 -8.347656 12.316406 -8.539062 11.546875 -8.6875 L 7.3125 -9.53125 C 4.90625 -10 3.222656 -10.914062 2.265625 -12.28125 C 1.316406 -13.65625 0.84375 -15.421875 0.84375 -17.578125 C 0.84375 -19.179688 1.253906 -20.578125 2.078125 -21.765625 C 2.910156 -22.960938 4.140625 -23.890625 5.765625 -24.546875 C 7.398438 -25.210938 9.398438 -25.546875 11.765625 -25.546875 C 15.234375 -25.546875 17.925781 -24.789062 19.84375 -23.28125 C 21.757812 -21.769531 22.738281 -19.4375 22.78125 -16.28125 Z M 22.78125 -16.28125 "/></g></g></g></svg>